Coordinates
version=1
nRows=16
nColumns=36
inDegrees=yes

Units are S.I. units (second, meters, Newtons, ...)
If the header above contains a line with 'inDegrees', this indicates whether rotational values are in degrees (yes) or radians (no).

endheader
time	pelvis_tilt	pelvis_list	pelvis_rotation	pelvis_tx	pelvis_ty	pelvis_tz	hip_flexion_r	hip_adduction_r	hip_rotation_r	knee_angle_r	knee_angle_r_beta	ankle_angle_r	subtalar_angle_r	mtp_angle_r	hip_flexion_l	hip_adduction_l	hip_rotation_l	knee_angle_l	knee_angle_l_beta	ankle_angle_l	subtalar_angle_l	mtp_angle_l	lumbar_extension	lumbar_bending	lumbar_rotation	arm_flex_r	arm_add_r	arm_rot_r	elbow_flex_r	pro_sup_r	arm_flex_l	arm_add_l	arm_rot_l	elbow_flex_l	pro_sup_l
      5.66666670	    -15.55705879	      4.37779122	     -1.89786637	      0.48409741	      0.86809656	     -0.03714138	     53.71991515	    -11.34405977	     -2.39970808	     62.34947112	      1.08820356	     33.38913902	     -5.94135826	     -7.49999987	     55.72604599	     -8.70163986	      0.12184746	     62.27494885	      1.08690290	     21.03777933	     -5.97620730	     -7.49999987	    -32.00493287	      2.20168179	     -0.66478858	     49.50934596	     -6.37417402	     16.90271519	    109.92286824	     96.34583345	     55.67749254	     -6.93970939	     21.38900091	    125.84504481	     94.62974110
      5.68333330	    -15.74265666	      4.16186897	     -1.73555643	      0.48449598	      0.87226134	     -0.03744697	     52.63982348	    -10.82171181	     -2.32815082	     60.27989796	      1.05208269	     33.17307889	     -6.13568896	     -7.49999987	     55.01117248	     -8.74090206	      0.12279072	     60.68664743	      1.05918181	     20.44392026	     -5.49086379	     -7.49999987	    -31.20629083	      2.46623672	     -0.13499586	     49.14309857	     -6.90251543	     15.97796017	    111.86219830	     99.19883826	     55.45297185	     -6.27452993	     20.95417415	    126.15829205	     97.12794940
      5.70000000	    -15.84552590	      3.98113078	     -1.62193646	      0.48391217	      0.87658911	     -0.03760895	     51.60943250	    -10.38289504	     -2.27135455	     58.43309864	      1.01984996	     32.37372289	     -6.77978467	     -7.49999987	     54.34114381	     -8.76591210	      0.04011284	     59.12675829	      1.03195661	     19.31990405	     -5.33778308	     -7.49999987	    -30.54015927	      2.70560824	      0.23932807	     49.14208357	     -7.56170927	     15.98938906	    113.49928466	     98.00309087	     54.94183401	     -5.92768080	     20.68245144	    126.75269402	     95.95459968
      5.71666670	    -15.98842652	      3.89137681	     -1.69301750	      0.48419863	      0.88064795	     -0.03771595	     50.78610392	     -9.98092226	     -2.20653767	     56.98463922	      0.99456958	     31.71863028	     -7.32346966	     -7.49999987	     53.63901006	     -8.76430203	      0.05190747	     57.59504087	      1.00522310	     18.45649742	     -5.36834079	     -7.49999987	    -29.80130295	      2.83051198	      0.48862647	     48.67434407	     -8.11405598	     16.10466755	    115.17438164	     97.02411455	     54.45052089	     -5.77732882	     20.48230869	    127.56357337	     95.01264257
      5.73333330	    -15.98955197	      3.90704508	     -1.69122391	      0.48333035	      0.88768460	     -0.03747563	     49.78018368	     -9.65897581	     -1.99135237	     55.39722044	      0.96686389	     30.75182161	     -8.47458733	     -7.49999987	     52.68182567	     -8.61269020	     -0.03698975	     55.78568660	      0.97364391	     17.63113562	     -5.64165202	     -7.49999987	    -29.10826187	      2.87334515	      0.86267061	     47.66941743	     -8.85615695	     15.97137432	    116.72036641	     97.59728916	     53.82750248	     -5.60666740	     20.12806988	    127.34475688	     95.49148179
      5.75000000	    -15.71448466	      3.87529793	     -1.58579950	      0.49053964	      0.89757033	     -0.04273025	     47.88891616	     -9.78351937	     -2.28473580	     53.21625939	      0.92879894	     29.20178052	     -9.65801533	     -7.49999987	     50.78885313	     -8.05854636	      0.14998790	     53.44732310	      0.93283176	     16.94471613	     -6.12299346	     -7.49999987	    -28.45693899	      3.25586860	      1.05562232	     46.01924195	     -9.41794485	     15.96880763	    117.65891969	     98.30586553	     52.28655473	     -5.38550685	     20.26847429	    126.57708485	     96.01374452
      5.76666670	    -15.64016315	      3.90362755	     -1.44525217	      0.48956467	      0.90170156	     -0.04246331	     46.52482227	    -10.06138234	     -2.75838170	     51.37273278	      0.89662333	     27.61866206	    -10.82271037	     -7.49999987	     49.32869564	     -7.54077377	      0.22691408	     51.33913370	      0.89603692	     16.31740330	     -6.63493534	     -7.49999987	    -27.88268027	      3.50649632	      0.97952886	     44.79355827	     -9.92314542	     15.75953786	    118.70212480	     98.65998439	     50.89036445	     -5.39007593	     20.20590228	    126.52356475	     96.26983347
      5.78333330	    -15.37411754	      3.77203158	     -1.37041390	      0.49321719	      0.90705830	     -0.03996848	     45.17741073	     -9.99842125	     -3.12498576	     49.77045554	      0.86865832	     26.88479792	    -11.33248185	     -7.49999987	     47.58368192	     -7.35029955	      0.36104928	     49.22084641	      0.85906583	     15.97342652	     -6.82943846	     -7.49999987	    -27.31186646	      3.82181530	      0.80979486	     42.68532965	    -10.26173208	     15.99455969	    119.54968657	     97.01085768	     49.23951566	     -5.89809817	     20.36257569	    126.30912204	     94.54696791
      5.80000000	    -15.39935646	      3.62437352	     -1.62770179	      0.49152650	      0.91003744	     -0.04485357	     44.24359517	     -9.85923134	     -3.45355817	     47.97568251	      0.83733362	     26.08529803	    -11.55154462	     -7.49999987	     46.68941773	     -7.33658569	      0.06482793	     47.88235372	      0.83570473	     15.27468383	     -7.76487534	     -7.49999987	    -26.09865382	      4.11150659	      0.92635374	     40.77778595	    -10.86864503	     15.67503520	    119.18303260	     97.73769643	     47.01959163	     -6.17642284	     20.31691030	    124.93361538	     94.92276894
      5.81666670	    -15.19370549	      3.42652026	     -1.71072534	      0.49479886	      0.91829440	     -0.04216614	     42.61306493	     -9.35655770	     -3.46074612	     45.68969107	      0.79743554	     25.49166906	    -11.65920497	     -7.49999987	     45.30788882	     -7.41390067	     -0.07161389	     46.06934562	      0.80406177	     14.50528876	     -8.01696461	     -7.49999987	    -25.30810899	      4.25265709	      0.78512557	     38.56932814	    -11.01913821	     15.37719557	    118.40168057	     98.17126499	     44.29897669	     -6.62012992	     20.03295712	    123.47099097	     95.04599508
      5.83333330	    -15.45139857	      3.28653165	     -2.17117863	      0.49391148	      0.92363955	     -0.04159314	     41.36876668	     -8.74719781	     -3.45157420	     42.94800829	      0.74958415	     24.49046944	    -12.08646560	     -7.49999987	     44.57160456	     -7.68530728	     -0.36667404	     44.48474203	      0.77640522	     13.67877240	     -8.37475964	     -7.49999987	    -24.04141552	      4.19485518	      0.58250056	     35.94603842	    -10.57721620	     14.96278814	    116.79242041	     98.43897809	     41.51601551	     -7.37287458	     20.18029035	    122.13844794	     95.03698253
      5.85000000	    -15.56372782	      3.11242317	     -2.82432853	      0.49403022	      0.92648114	     -0.04114269	     40.41449399	     -8.00583833	     -3.29188068	     40.78001462	      0.71174552	     24.12896898	    -11.48721074	     -7.49999987	     43.76953817	     -8.11995391	     -0.72082319	     43.11402996	      0.75248178	     13.36739532	     -8.36230427	     -7.49999987	    -22.85594813	      4.04104423	      0.34081298	     32.85567051	    -10.51974671	     15.06049997	    115.15785061	     96.37825408	     38.71466925	     -8.01162328	     20.42227344	    120.28444149	     93.27474143
      5.86666670	    -15.82964211	      2.91469495	     -3.40169763	      0.49742205	      0.92773739	     -0.03827616	     39.48966131	     -7.19656020	     -3.04385089	     38.63356526	      0.67428292	     23.19641187	    -12.33617791	     -7.49999987	     43.14043055	     -8.59881152	     -0.90346760	     41.83066923	      0.73008291	     12.74375507	     -9.04984882	     -7.49999987	    -21.49390000	      3.88826622	     -0.51243276	     29.34265261	     -9.95884171	     14.62929194	    112.67621406	     98.37057138	     35.55957829	     -8.76407265	     19.81573794	    118.67070500	     92.76270760
      5.88333330	    -15.86778712	      2.67691939	     -3.76467538	      0.50010058	      0.93725469	     -0.04089802	     38.19675764	     -6.65354351	     -3.05796678	     36.45215755	      0.63621017	     21.99111060	    -12.64038363	     -7.49999987	     41.94126809	     -8.80175130	     -0.88973489	     40.04316181	      0.69888502	     12.04185308	     -9.39020206	     -7.49999987	    -20.51833553	      3.86309014	     -0.87771800	     26.40625209	    -10.31843699	     14.33498786	    110.13448582	     98.25082797	     32.77262860	     -8.97711598	     19.53414937	    116.37437141	     92.51889306
      5.90000000	    -15.89145753	      2.66041622	     -4.20140717	      0.49921268	      0.93950884	     -0.04059747	     37.40189165	     -6.34808374	     -3.00957214	     34.81544028	      0.60764406	     20.66011197	    -13.15564683	     -7.49999987	     40.57557566	     -8.73666637	     -0.80927853	     38.00746964	      0.66335549	     11.46597725	     -9.99906882	     -7.49999987	    -19.49648111	      3.70639411	     -0.85929575	     24.72919550	    -11.32938003	     14.66699467	    106.28318108	     98.02442842	     30.36773319	     -9.04084397	     18.70726556	    112.26416338	     92.12268012
      5.91666670	    -16.03917134	      2.63502559	     -4.33745165	      0.49907905	      0.94623442	     -0.04019335	     36.41968534	     -6.00749985	     -2.75562463	     32.64105348	      0.56969385	     19.15944262	    -13.63724384	     -7.49999987	     39.35630198	     -8.51721350	     -0.53561725	     35.52058319	      0.61995113	     10.27028983	    -10.92997296	     -7.49999987	    -18.19139965	      3.76833477	     -0.19181735	     22.58293720	    -12.71685151	     14.68885479	    100.44117495	     97.56104416	     26.79244911	     -7.95995530	     17.55330715	    108.02286233	     91.53791312
